<svg version="1.1" xmlns="http://www.w3.org/2000/svg" xmlns:xlink="http://www.w3.org/1999/xlink" width="564" height="748"><defs/><g><g transform="translate(-134,-150) scale(1,1)"><path fill="#ffffff" stroke="none" d="M 312.5 160 L 367.5 160 Q 384 160 384 176.5 L 384 175.5 Q 384 192 367.5 192 L 312.5 192 Q 296 192 296 175.5 L 296 176.5 Q 296 160 312.5 160 Z"/></g><g transform="translate(-134,-150) scale(1,1)"><path fill="none" stroke="#000000" d="M 312.5 160 L 367.5 160 Q 384 160 384 176.5 L 384 175.5 Q 384 192 367.5 192 L 312.5 192 Q 296 192 296 175.5 L 296 176.5 Q 296 160 312.5 160 Z" stroke-miterlimit="10"/></g><g transform="translate(-134,-150) scale(1,1)"><g><path fill="none" stroke="none"/><text fill="#000000" stroke="none" font-family="Arial" font-size="13px" font-style="normal" font-weight="normal" text-decoration="none" x="318.5" y="182.5">START</text></g></g><g transform="translate(-134,-150) scale(1,1)"><rect fill="#ffffff" stroke="none" x="288" y="248" width="110" height="32"/></g><g transform="translate(-134,-150) scale(1,1)"><path fill="none" stroke="#000000" d="M 288 248 L 398 248 L 398 280 L 288 280 L 288 248 Z Z" stroke-miterlimit="10"/></g><g transform="translate(-134,-150) scale(1,1)"><g><path fill="none" stroke="none"/><text fill="#000000" stroke="none" font-family="Arial" font-size="13px" font-style="normal" font-weight="normal" text-decoration="none" x="297.5" y="270.5">CookingHandler</text></g></g><g transform="translate(-134,-150) scale(1,1)"><path fill="none" stroke="#000000" d="M 336 192 L 336 248" stroke-miterlimit="10"/></g><g transform="translate(-134,-150) scale(1,1)"><path fill="#000000" stroke="none" d="M 331.790482243984 237.83732514237585 L 336 248 L 340.209517756016 237.83732514237585"/></g><g transform="translate(-134,-150) scale(1,1)"><path fill="none" stroke="#000000" d="M 331.790482243984 237.83732514237585 L 336 248 L 340.209517756016 237.83732514237585 L 331.790482243984 237.83732514237585" stroke-miterlimit="10"/></g><g transform="translate(-134,-150) scale(1,1)"><g><path fill="none" stroke="none"/><text fill="#000000" stroke="none" font-family="Arial" font-size="13px" font-style="normal" font-weight="normal" text-decoration="none" x="351.5" y="220.5">user invoked by Alexa keyword</text></g></g><g transform="translate(-134,-150) scale(1,1)"><path fill="#ffffff" stroke="none" d="M 280 358.5 L 340.5 344 L 401 358.5 L 340.5 373 L 280 358.5"/></g><g transform="translate(-134,-150) scale(1,1)"><path fill="none" stroke="#000000" d="M 280 358.5 L 340.5 344 L 401 358.5 L 340.5 373 L 280 358.5 L 280 358.5" stroke-miterlimit="10"/></g><g transform="translate(-134,-150) scale(1,1)"><g><path fill="none" stroke="none"/><text fill="#000000" stroke="none" font-family="Arial" font-size="13px" font-style="normal" font-weight="normal" text-decoration="none" x="310" y="365">canHandle</text></g></g><g transform="translate(-134,-150) scale(1,1)"><path fill="none" stroke="#000000" d="M 342 280 L 342 344" stroke-miterlimit="10"/></g><g transform="translate(-134,-150) scale(1,1)"><path fill="#000000" stroke="none" d="M 337.790482243984 333.83732514237585 L 342 344 L 346.209517756016 333.83732514237585"/></g><g transform="translate(-134,-150) scale(1,1)"><path fill="none" stroke="#000000" d="M 337.790482243984 333.83732514237585 L 342 344 L 346.209517756016 333.83732514237585 L 337.790482243984 333.83732514237585" stroke-miterlimit="10"/></g><g transform="translate(-134,-150) scale(1,1)"><g><path fill="none" stroke="none"/><text fill="#000000" stroke="none" font-family="Arial" font-size="13px" font-style="normal" font-weight="normal" text-decoration="none" x="350.5" y="317.5">pre-check if handler is responsible</text></g></g><g transform="translate(-134,-150) scale(1,1)"><path fill="#ffffff" stroke="none" d="M 160.5 344 L 215.5 344 Q 232 344 232 360.5 L 232 359.5 Q 232 376 215.5 376 L 160.5 376 Q 144 376 144 359.5 L 144 360.5 Q 144 344 160.5 344 Z"/></g><g transform="translate(-134,-150) scale(1,1)"><path fill="none" stroke="#000000" d="M 160.5 344 L 215.5 344 Q 232 344 232 360.5 L 232 359.5 Q 232 376 215.5 376 L 160.5 376 Q 144 376 144 359.5 L 144 360.5 Q 144 344 160.5 344 Z" stroke-miterlimit="10"/></g><g transform="translate(-134,-150) scale(1,1)"><g><path fill="none" stroke="none"/><text fill="#000000" stroke="none" font-family="Arial" font-size="13px" font-style="normal" font-weight="normal" text-decoration="none" x="162" y="366.5">CANCEL</text></g></g><g transform="translate(-134,-150) scale(1,1)"><path fill="none" stroke="#000000" d="M 280 359 L 232 359" stroke-miterlimit="10"/></g><g transform="translate(-134,-150) scale(1,1)"><path fill="#000000" stroke="none" d="M 242.16267485762415 354.790482243984 L 232 359 L 242.16267485762415 363.209517756016"/></g><g transform="translate(-134,-150) scale(1,1)"><path fill="none" stroke="#000000" d="M 242.16267485762415 354.790482243984 L 232 359 L 242.16267485762415 363.209517756016 L 242.16267485762415 354.790482243984" stroke-miterlimit="10"/></g><g transform="translate(-134,-150) scale(1,1)"><g><path fill="none" stroke="none"/><text fill="#000000" stroke="none" font-family="Arial" font-size="13px" font-style="normal" font-weight="normal" text-decoration="none" x="245.5" y="348.5">false</text></g></g><g transform="translate(-134,-150) scale(1,1)"><rect fill="#ffffff" stroke="none" x="304" y="416" width="74" height="32"/></g><g transform="translate(-134,-150) scale(1,1)"><path fill="none" stroke="#000000" d="M 304 416 L 378 416 L 378 448 L 304 448 L 304 416 Z Z" stroke-miterlimit="10"/></g><g transform="translate(-134,-150) scale(1,1)"><g><path fill="none" stroke="none"/><text fill="#000000" stroke="none" font-family="Arial" font-size="13px" font-style="normal" font-weight="normal" text-decoration="none" x="322" y="438.5">handle</text></g></g><g transform="translate(-134,-150) scale(1,1)"><path fill="none" stroke="#000000" d="M 340 373 L 340 416" stroke-miterlimit="10"/></g><g transform="translate(-134,-150) scale(1,1)"><path fill="#000000" stroke="none" d="M 335.790482243984 405.83732514237585 L 340 416 L 344.209517756016 405.83732514237585"/></g><g transform="translate(-134,-150) scale(1,1)"><path fill="none" stroke="#000000" d="M 335.790482243984 405.83732514237585 L 340 416 L 344.209517756016 405.83732514237585 L 335.790482243984 405.83732514237585" stroke-miterlimit="10"/></g><g transform="translate(-134,-150) scale(1,1)"><g><path fill="none" stroke="none"/><text fill="#000000" stroke="none" font-family="Arial" font-size="13px" font-style="normal" font-weight="normal" text-decoration="none" x="350.5" y="396.5">true</text></g></g><g transform="translate(-134,-150) scale(1,1)"><path fill="#ffffff" stroke="none" d="M 288 521.5 L 344.5 496 L 401 521.5 L 344.5 547 L 288 521.5"/></g><g transform="translate(-134,-150) scale(1,1)"><path fill="none" stroke="#000000" d="M 288 521.5 L 344.5 496 L 401 521.5 L 344.5 547 L 288 521.5 L 288 521.5" stroke-miterlimit="10"/></g><g transform="translate(-134,-150) scale(1,1)"><g><path fill="none" stroke="none"/><text fill="#000000" stroke="none" font-family="Arial" font-size="13px" font-style="normal" font-weight="normal" text-decoration="none" x="324.5" y="521.5">Recipe</text><text fill="#000000" stroke="none" font-family="Arial" font-size="13px" font-style="normal" font-weight="normal" text-decoration="none" x="320" y="534.5">chosen?</text></g></g><g transform="translate(-134,-150) scale(1,1)"><path fill="none" stroke="#000000" d="M 342 448 L 342 496" stroke-miterlimit="10"/></g><g transform="translate(-134,-150) scale(1,1)"><path fill="#000000" stroke="none" d="M 337.790482243984 485.83732514237585 L 342 496 L 346.209517756016 485.83732514237585"/></g><g transform="translate(-134,-150) scale(1,1)"><path fill="none" stroke="#000000" d="M 337.790482243984 485.83732514237585 L 342 496 L 346.209517756016 485.83732514237585 L 337.790482243984 485.83732514237585" stroke-miterlimit="10"/></g><g transform="translate(-134,-150) scale(1,1)"><rect fill="#ffffff" stroke="none" x="296" y="576" width="95" height="58"/></g><g transform="translate(-134,-150) scale(1,1)"><path fill="none" stroke="#000000" d="M 296 576 L 391 576 L 391 634 L 296 634 L 296 576 Z Z" stroke-miterlimit="10"/></g><g transform="translate(-134,-150) scale(1,1)"><g><path fill="none" stroke="none"/><text fill="#000000" stroke="none" font-family="Arial" font-size="13px" font-style="normal" font-weight="normal" text-decoration="none" x="306" y="598.5">Prompt user:</text><text fill="#000000" stroke="none" font-family="Arial" font-size="13px" font-style="normal" font-weight="normal" text-decoration="none" x="314" y="611.5">Substitute</text><text fill="#000000" stroke="none" font-family="Arial" font-size="13px" font-style="normal" font-weight="normal" text-decoration="none" x="312" y="624.5">ingredient?</text></g></g><g transform="translate(-134,-150) scale(1,1)"><rect fill="#ffffff" stroke="none" x="160" y="496" width="74" height="58"/></g><g transform="translate(-134,-150) scale(1,1)"><path fill="none" stroke="#000000" d="M 160 496 L 234 496 L 234 554 L 160 554 L 160 496 Z Z" stroke-miterlimit="10"/></g><g transform="translate(-134,-150) scale(1,1)"><g><path fill="none" stroke="none"/><text fill="#000000" stroke="none" font-family="Arial" font-size="13px" font-style="normal" font-weight="normal" text-decoration="none" x="176" y="518.5">Prompt</text><text fill="#000000" stroke="none" font-family="Arial" font-size="13px" font-style="normal" font-weight="normal" text-decoration="none" x="175" y="531.5">user for</text><text fill="#000000" stroke="none" font-family="Arial" font-size="13px" font-style="normal" font-weight="normal" text-decoration="none" x="179.5" y="544.5">recipe</text></g></g><g transform="translate(-134,-150) scale(1,1)"><path fill="none" stroke="#000000" d="M 288 524 L 234 524" stroke-miterlimit="10"/></g><g transform="translate(-134,-150) scale(1,1)"><path fill="#000000" stroke="none" d="M 244.16267485762415 519.790482243984 L 234 524 L 244.16267485762415 528.209517756016"/></g><g transform="translate(-134,-150) scale(1,1)"><path fill="none" stroke="#000000" d="M 244.16267485762415 519.790482243984 L 234 524 L 244.16267485762415 528.209517756016 L 244.16267485762415 519.790482243984" stroke-miterlimit="10"/></g><g transform="translate(-134,-150) scale(1,1)"><g><path fill="none" stroke="none"/><text fill="#000000" stroke="none" font-family="Arial" font-size="13px" font-style="normal" font-weight="normal" text-decoration="none" x="252.5" y="545.5">no</text></g></g><g transform="translate(-134,-150) scale(1,1)"><path fill="none" stroke="#000000" d="M 344 547 L 344 576" stroke-miterlimit="10"/></g><g transform="translate(-134,-150) scale(1,1)"><path fill="#000000" stroke="none" d="M 339.790482243984 565.8373251423759 L 344 576 L 348.209517756016 565.8373251423759"/></g><g transform="translate(-134,-150) scale(1,1)"><path fill="none" stroke="#000000" d="M 339.790482243984 565.8373251423759 L 344 576 L 348.209517756016 565.8373251423759 L 339.790482243984 565.8373251423759" stroke-miterlimit="10"/></g><g transform="translate(-134,-150) scale(1,1)"><g><path fill="none" stroke="none"/><text fill="#000000" stroke="none" font-family="Arial" font-size="13px" font-style="normal" font-weight="normal" text-decoration="none" x="311.5" y="563.5">yes</text></g></g><g transform="translate(-134,-150) scale(1,1)"><path fill="none" stroke="#000000" d="M 200 496 L 200 440 M 200 440 A 8 8 0 0 1 208 432 L 304 432" stroke-miterlimit="10"/></g><g transform="translate(-134,-150) scale(1,1)"><path fill="#000000" stroke="none" d="M 293.83732514237585 436.209517756016 L 304 432 L 293.83732514237585 427.790482243984"/></g><g transform="translate(-134,-150) scale(1,1)"><path fill="none" stroke="#000000" d="M 293.83732514237585 436.209517756016 L 304 432 L 293.83732514237585 427.790482243984 L 293.83732514237585 436.209517756016" stroke-miterlimit="10"/></g><g transform="translate(-134,-150) scale(1,1)"><path fill="#ffffff" stroke="none" d="M 328 678.5 C 328 670.4918704 334.4918704 664 342.5 664 C 350.5081296 664 357 670.4918704 357 678.5 C 357 686.5081296 350.5081296 693 342.5 693 C 334.4918704 693 328 686.5081296 328 678.5 Z"/></g><g transform="translate(-134,-150) scale(1,1)"><path fill="none" stroke="#000000" d="M 328 678.5 C 328 670.4918704 334.4918704 664 342.5 664 C 350.5081296 664 357 670.4918704 357 678.5 C 357 686.5081296 350.5081296 693 342.5 693 C 334.4918704 693 328 686.5081296 328 678.5 Z" stroke-miterlimit="10"/></g><g transform="translate(-134,-150) scale(1,1)"><path fill="none" stroke="#000000" d="M 342 664 L 342 693" stroke-miterlimit="10"/></g><g transform="translate(-134,-150) scale(1,1)"><path fill="none" stroke="#000000" d="M 328 678 L 357 678" stroke-miterlimit="10"/></g><g transform="translate(-134,-150) scale(1,1)"><path fill="none" stroke="#000000" d="M 343 634 L 343 664" stroke-miterlimit="10"/></g><g transform="translate(-134,-150) scale(1,1)"><path fill="#000000" stroke="none" d="M 338.790482243984 653.8373251423759 L 343 664 L 347.209517756016 653.8373251423759"/></g><g transform="translate(-134,-150) scale(1,1)"><path fill="none" stroke="#000000" d="M 338.790482243984 653.8373251423759 L 343 664 L 347.209517756016 653.8373251423759 L 338.790482243984 653.8373251423759" stroke-miterlimit="10"/></g><g transform="translate(-134,-150) scale(1,1)"><rect fill="#ffffff" stroke="none" x="456" y="656" width="96" height="58"/></g><g transform="translate(-134,-150) scale(1,1)"><path fill="none" stroke="#000000" d="M 456 656 L 552 656 L 552 714 L 456 714 L 456 656 Z Z" stroke-miterlimit="10"/></g><g transform="translate(-134,-150) scale(1,1)"><g><path fill="none" stroke="none"/><text fill="#000000" stroke="none" font-family="Arial" font-size="13px" font-style="normal" font-weight="normal" text-decoration="none" x="468.5" y="678.5">Prompt user</text><text fill="#000000" stroke="none" font-family="Arial" font-size="13px" font-style="normal" font-weight="normal" text-decoration="none" x="479" y="691.5">to select</text><text fill="#000000" stroke="none" font-family="Arial" font-size="13px" font-style="normal" font-weight="normal" text-decoration="none" x="475.5" y="704.5">substitute</text></g></g><g transform="translate(-134,-150) scale(1,1)"><path fill="none" stroke="#000000" d="M 357 680 L 456 680" stroke-miterlimit="10"/></g><g transform="translate(-134,-150) scale(1,1)"><path fill="#000000" stroke="none" d="M 445.83732514237585 684.209517756016 L 456 680 L 445.83732514237585 675.790482243984"/></g><g transform="translate(-134,-150) scale(1,1)"><path fill="none" stroke="#000000" d="M 445.83732514237585 684.209517756016 L 456 680 L 445.83732514237585 675.790482243984 L 445.83732514237585 684.209517756016" stroke-miterlimit="10"/></g><g transform="translate(-134,-150) scale(1,1)"><g><path fill="none" stroke="none"/><text fill="#000000" stroke="none" font-family="Arial" font-size="13px" font-style="normal" font-weight="normal" text-decoration="none" x="375.5" y="667.5">yes</text></g></g><g transform="translate(-134,-150) scale(1,1)"><path fill="#ffffff" stroke="none" d="M 466 496 L 515 496 L 505 541 L 456 541 L 466 496"/></g><g transform="translate(-134,-150) scale(1,1)"><path fill="none" stroke="#000000" d="M 466 496 L 515 496 L 505 541 L 456 541 L 466 496 L 466 496" stroke-miterlimit="10"/></g><g transform="translate(-134,-150) scale(1,1)"><g><path fill="none" stroke="none"/><text fill="#000000" stroke="none" font-family="Arial" font-size="13px" font-style="normal" font-weight="normal" text-decoration="none" x="472" y="518.5">User</text><text fill="#000000" stroke="none" font-family="Arial" font-size="13px" font-style="normal" font-weight="normal" text-decoration="none" x="465.5" y="531.5">Recipe</text></g></g><g transform="translate(-134,-150) scale(1,1)"><path fill="none" stroke="#000000" d="M 455 527 L 344 561" stroke-miterlimit="10" stroke-dasharray="3"/></g><g transform="translate(-134,-150) scale(1,1)"><path fill="#ffffff" stroke="none" d="M 454 576 L 525 576 L 511 621 L 440 621 L 454 576"/></g><g transform="translate(-134,-150) scale(1,1)"><path fill="none" stroke="#000000" d="M 454 576 L 525 576 L 511 621 L 440 621 L 454 576 L 454 576" stroke-miterlimit="10"/></g><g transform="translate(-134,-150) scale(1,1)"><g><path fill="none" stroke="none"/><text fill="#000000" stroke="none" font-family="Arial" font-size="13px" font-style="normal" font-weight="normal" text-decoration="none" x="457.5" y="598.5">Possible</text><text fill="#000000" stroke="none" font-family="Arial" font-size="13px" font-style="normal" font-weight="normal" text-decoration="none" x="449.5" y="611.5">Substitutes</text></g></g><g transform="translate(-134,-150) scale(1,1)"><path fill="none" stroke="#000000" d="M 460 622 L 406 680" stroke-miterlimit="10" stroke-dasharray="3"/></g><g transform="translate(-134,-150) scale(1,1)"><path fill="#ffffff" stroke="none" d="M 552 528 L 645 528 L 655 538 L 655 567 L 552 567 L 552 528"/></g><g transform="translate(-134,-150) scale(1,1)"><path fill="none" stroke="#000000" d="M 552 528 L 645 528 L 655 538 L 655 567 L 552 567 L 552 528 L 552 528" stroke-miterlimit="10"/></g><g transform="translate(-134,-150) scale(1,1)"><path fill="none" stroke="#000000" d="M 645 528 L 645 538 L 655 538 L 645 528" stroke-miterlimit="10"/></g><g transform="translate(-134,-150) scale(1,1)"><g><path fill="none" stroke="none"/><text fill="#000000" stroke="none" font-family="Arial" font-size="13px" font-style="normal" font-weight="normal" text-decoration="none" x="557" y="546">fetch from</text><text fill="#000000" stroke="none" font-family="Arial" font-size="13px" font-style="normal" font-weight="normal" text-decoration="none" x="557" y="559">backend</text></g></g><g transform="translate(-134,-150) scale(1,1)"><path fill="none" stroke="#000000" d="M 551 535 L 516 526" stroke-miterlimit="10" stroke-dasharray="3"/></g><g transform="translate(-134,-150) scale(1,1)"><path fill="none" stroke="#000000" d="M 553 569 L 526 580" stroke-miterlimit="10" stroke-dasharray="3"/></g><g transform="translate(-134,-150) scale(1,1)"><rect fill="#ffffff" stroke="none" x="144" y="648" width="108" height="71"/></g><g transform="translate(-134,-150) scale(1,1)"><path fill="none" stroke="#000000" d="M 144 648 L 252 648 L 252 719 L 144 719 L 144 648 Z Z" stroke-miterlimit="10"/></g><g transform="translate(-134,-150) scale(1,1)"><g><path fill="none" stroke="none"/><text fill="#000000" stroke="none" font-family="Arial" font-size="13px" font-style="normal" font-weight="normal" text-decoration="none" x="181.5" y="670.5">Block</text><text fill="#000000" stroke="none" font-family="Arial" font-size="13px" font-style="normal" font-weight="normal" text-decoration="none" x="155" y="683.5">substitution for</text><text fill="#000000" stroke="none" font-family="Arial" font-size="13px" font-style="normal" font-weight="normal" text-decoration="none" x="157.5" y="696.5">this ingredient</text><text fill="#000000" stroke="none" font-family="Arial" font-size="13px" font-style="normal" font-weight="normal" text-decoration="none" x="161" y="709.5">in this recipe</text></g></g><g transform="translate(-134,-150) scale(1,1)"><path fill="none" stroke="#000000" d="M 328 681 L 252 681" stroke-miterlimit="10"/></g><g transform="translate(-134,-150) scale(1,1)"><path fill="#000000" stroke="none" d="M 262.16267485762415 676.790482243984 L 252 681 L 262.16267485762415 685.209517756016"/></g><g transform="translate(-134,-150) scale(1,1)"><path fill="none" stroke="#000000" d="M 262.16267485762415 676.790482243984 L 252 681 L 262.16267485762415 685.209517756016 L 262.16267485762415 676.790482243984" stroke-miterlimit="10"/></g><g transform="translate(-134,-150) scale(1,1)"><g><path fill="none" stroke="none"/><text fill="#000000" stroke="none" font-family="Arial" font-size="13px" font-style="normal" font-weight="normal" text-decoration="none" x="280.5" y="667.5">no</text></g></g><g transform="translate(-134,-150) scale(1,1)"><path fill="#ffffff" stroke="none" d="M 320.5 856 L 375.5 856 Q 392 856 392 872.5 L 392 871.5 Q 392 888 375.5 888 L 320.5 888 Q 304 888 304 871.5 L 304 872.5 Q 304 856 320.5 856 Z"/></g><g transform="translate(-134,-150) scale(1,1)"><path fill="none" stroke="#000000" d="M 320.5 856 L 375.5 856 Q 392 856 392 872.5 L 392 871.5 Q 392 888 375.5 888 L 320.5 888 Q 304 888 304 871.5 L 304 872.5 Q 304 856 320.5 856 Z" stroke-miterlimit="10"/></g><g transform="translate(-134,-150) scale(1,1)"><g><path fill="none" stroke="none"/><text fill="#000000" stroke="none" font-family="Arial" font-size="13px" font-style="normal" font-weight="normal" text-decoration="none" x="334.5" y="878.5">END</text></g></g><g transform="translate(-134,-150) scale(1,1)"><path fill="none" stroke="#000000" d="M 227 719 L 227 864 M 227 864 A 8 8 0 0 0 235 872 L 304 872" stroke-miterlimit="10"/></g><g transform="translate(-134,-150) scale(1,1)"><path fill="#000000" stroke="none" d="M 293.83732514237585 876.209517756016 L 304 872 L 293.83732514237585 867.790482243984"/></g><g transform="translate(-134,-150) scale(1,1)"><path fill="none" stroke="#000000" d="M 293.83732514237585 876.209517756016 L 304 872 L 293.83732514237585 867.790482243984 L 293.83732514237585 876.209517756016" stroke-miterlimit="10"/></g><g transform="translate(-134,-150) scale(1,1)"><rect fill="#ffffff" stroke="none" x="424" y="784" width="152" height="58"/></g><g transform="translate(-134,-150) scale(1,1)"><path fill="none" stroke="#000000" d="M 424 784 L 576 784 L 576 842 L 424 842 L 424 784 Z Z" stroke-miterlimit="10"/></g><g transform="translate(-134,-150) scale(1,1)"><g><path fill="none" stroke="none"/><text fill="#000000" stroke="none" font-family="Arial" font-size="13px" font-style="normal" font-weight="normal" text-decoration="none" x="446.5" y="806.5">Replace unhealthy</text><text fill="#000000" stroke="none" font-family="Arial" font-size="13px" font-style="normal" font-weight="normal" text-decoration="none" x="440" y="819.5">ingredient by chosen</text><text fill="#000000" stroke="none" font-family="Arial" font-size="13px" font-style="normal" font-weight="normal" text-decoration="none" x="471.5" y="832.5">substitute</text></g></g><g transform="translate(-134,-150) scale(1,1)"><path fill="none" stroke="#000000" d="M 503 714 L 503 784" stroke-miterlimit="10"/></g><g transform="translate(-134,-150) scale(1,1)"><path fill="#000000" stroke="none" d="M 498.790482243984 773.8373251423759 L 503 784 L 507.209517756016 773.8373251423759"/></g><g transform="translate(-134,-150) scale(1,1)"><path fill="none" stroke="#000000" d="M 498.790482243984 773.8373251423759 L 503 784 L 507.209517756016 773.8373251423759 L 498.790482243984 773.8373251423759" stroke-miterlimit="10"/></g><g transform="translate(-134,-150) scale(1,1)"><path fill="none" stroke="#000000" d="M 504 842 L 504 864 M 504 864 A 8 8 0 0 1 496 872 L 392 872" stroke-miterlimit="10"/></g><g transform="translate(-134,-150) scale(1,1)"><path fill="#000000" stroke="none" d="M 402.16267485762415 867.790482243984 L 392 872 L 402.16267485762415 876.209517756016"/></g><g transform="translate(-134,-150) scale(1,1)"><path fill="none" stroke="#000000" d="M 402.16267485762415 867.790482243984 L 392 872 L 402.16267485762415 876.209517756016 L 402.16267485762415 867.790482243984" stroke-miterlimit="10"/></g><g transform="translate(-134,-150) scale(1,1)"><path fill="#ffffff" stroke="none" d="M 576 720 L 677 720 L 687 730 L 687 769 L 576 769 L 576 720"/></g><g transform="translate(-134,-150) scale(1,1)"><path fill="none" stroke="#000000" d="M 576 720 L 677 720 L 687 730 L 687 769 L 576 769 L 576 720 L 576 720" stroke-miterlimit="10"/></g><g transform="translate(-134,-150) scale(1,1)"><path fill="none" stroke="#000000" d="M 677 720 L 677 730 L 687 730 L 677 720" stroke-miterlimit="10"/></g><g transform="translate(-134,-150) scale(1,1)"><g><path fill="none" stroke="none"/><text fill="#000000" stroke="none" font-family="Arial" font-size="13px" font-style="normal" font-weight="normal" text-decoration="none" x="581" y="738">User selects a</text><text fill="#000000" stroke="none" font-family="Arial" font-size="13px" font-style="normal" font-weight="normal" text-decoration="none" x="581" y="751">substitute by</text><text fill="#000000" stroke="none" font-family="Arial" font-size="13px" font-style="normal" font-weight="normal" text-decoration="none" x="581" y="764">number (1-3)</text></g></g><g transform="translate(-134,-150) scale(1,1)"><path fill="none" stroke="#000000" d="M 575 747 L 503 749" stroke-miterlimit="10" stroke-dasharray="3"/></g></g></svg>