<svg version="1.1" xmlns="http://www.w3.org/2000/svg" xmlns:xlink="http://www.w3.org/1999/xlink" width="520" height="577"><defs/><g><g transform="translate(-94,-9) scale(1,1)"><rect fill="#C0C0C0" stroke="none" x="111" y="95" width="64" height="40" opacity="0.2"/></g><g transform="translate(-94,-9) scale(1,1)"><rect fill="#ffffff" stroke="none" x="104" y="88" width="64" height="40"/></g><g transform="translate(-94,-9) scale(1,1)"><path fill="none" stroke="#000000" d="M 104 88 L 168 88 L 168 128 L 104 128 L 104 88 Z Z" stroke-miterlimit="10"/></g><g transform="translate(-94,-9) scale(1,1)"><g><path fill="none" stroke="none"/><text fill="#000000" stroke="none" font-family="Arial" font-size="13px" font-style="normal" font-weight="bold" text-decoration="none" x="116" y="105.5">Allergy</text></g></g><g transform="translate(-94,-9) scale(1,1)"><rect fill="#C0C0C0" stroke="none" x="383" y="239" width="64" height="32" opacity="0.2"/></g><g transform="translate(-94,-9) scale(1,1)"><rect fill="#ffffff" stroke="none" x="376" y="232" width="64" height="32"/></g><g transform="translate(-94,-9) scale(1,1)"><path fill="none" stroke="#000000" d="M 376 232 L 440 232 L 440 264 L 376 264 L 376 232 Z Z" stroke-miterlimit="10"/></g><g transform="translate(-94,-9) scale(1,1)"><g><path fill="none" stroke="none"/><text fill="#000000" stroke="none" font-family="Arial" font-size="13px" font-style="normal" font-weight="bold" text-decoration="none" x="382" y="249.5">Category</text></g></g><g transform="translate(-94,-9) scale(1,1)"><rect fill="#C0C0C0" stroke="none" x="351" y="343" width="64" height="32" opacity="0.2"/></g><g transform="translate(-94,-9) scale(1,1)"><rect fill="#ffffff" stroke="none" x="344" y="336" width="64" height="32"/></g><g transform="translate(-94,-9) scale(1,1)"><path fill="none" stroke="#000000" d="M 344 336 L 408 336 L 408 368 L 344 368 L 344 336 Z Z" stroke-miterlimit="10"/></g><g transform="translate(-94,-9) scale(1,1)"><g><path fill="none" stroke="none"/><text fill="#000000" stroke="none" font-family="Arial" font-size="13px" font-style="normal" font-weight="bold" text-decoration="none" x="359.5" y="353.5">Client</text></g></g><g transform="translate(-94,-9) scale(1,1)"><rect fill="#C0C0C0" stroke="none" x="351" y="455" width="72" height="32" opacity="0.2"/></g><g transform="translate(-94,-9) scale(1,1)"><rect fill="#ffffff" stroke="none" x="344" y="448" width="72" height="32"/></g><g transform="translate(-94,-9) scale(1,1)"><path fill="none" stroke="#000000" d="M 344 448 L 416 448 L 416 480 L 344 480 L 344 448 Z Z" stroke-miterlimit="10"/></g><g transform="translate(-94,-9) scale(1,1)"><g><path fill="none" stroke="none"/><text fill="#000000" stroke="none" font-family="Arial" font-size="13px" font-style="normal" font-weight="bold" text-decoration="none" x="366.5" y="465.5">User</text></g></g><g transform="translate(-94,-9) scale(1,1)"><rect fill="#C0C0C0" stroke="none" x="295" y="391" width="52" height="32" opacity="0.2"/></g><g transform="translate(-94,-9) scale(1,1)"><rect fill="#ffffff" stroke="none" x="288" y="384" width="52" height="32"/></g><g transform="translate(-94,-9) scale(1,1)"><path fill="none" stroke="#000000" d="M 288 384 L 340 384 L 340 416 L 288 416 L 288 384 Z Z" stroke-miterlimit="10"/></g><g transform="translate(-94,-9) scale(1,1)"><g><path fill="none" stroke="none"/><text fill="#000000" stroke="none" font-family="Arial" font-size="13px" font-style="normal" font-weight="bold" text-decoration="none" x="296" y="401.5">Token</text></g></g><g transform="translate(-94,-9) scale(1,1)"><rect fill="#C0C0C0" stroke="none" x="431" y="103" width="85" height="32" opacity="0.2"/></g><g transform="translate(-94,-9) scale(1,1)"><rect fill="#ffffff" stroke="none" x="424" y="96" width="85" height="32"/></g><g transform="translate(-94,-9) scale(1,1)"><path fill="none" stroke="#000000" d="M 424 96 L 509 96 L 509 128 L 424 128 L 424 96 Z Z" stroke-miterlimit="10"/></g><g transform="translate(-94,-9) scale(1,1)"><g><path fill="none" stroke="none"/><text fill="#000000" stroke="none" font-family="Arial" font-size="13px" font-style="normal" font-weight="bold" text-decoration="none" x="432" y="113.5">Substitution</text></g></g><g transform="translate(-94,-9) scale(1,1)"><rect fill="#C0C0C0" stroke="none" x="335" y="551" width="89" height="32" opacity="0.2"/></g><g transform="translate(-94,-9) scale(1,1)"><rect fill="#ffffff" stroke="none" x="328" y="544" width="89" height="32"/></g><g transform="translate(-94,-9) scale(1,1)"><path fill="none" stroke="#000000" d="M 328 544 L 417 544 L 417 576 L 328 576 L 328 544 Z Z" stroke-miterlimit="10"/></g><g transform="translate(-94,-9) scale(1,1)"><g><path fill="none" stroke="none"/><text fill="#000000" stroke="none" font-family="Arial" font-size="13px" font-style="normal" font-weight="bold" text-decoration="none" x="336.5" y="561.5">Subscription</text></g></g><g transform="translate(-94,-9) scale(1,1)"><rect fill="#C0C0C0" stroke="none" x="463" y="551" width="52" height="32" opacity="0.2"/></g><g transform="translate(-94,-9) scale(1,1)"><rect fill="#ffffff" stroke="none" x="456" y="544" width="52" height="32"/></g><g transform="translate(-94,-9) scale(1,1)"><path fill="none" stroke="#000000" d="M 456 544 L 508 544 L 508 576 L 456 576 L 456 544 Z Z" stroke-miterlimit="10"/></g><g transform="translate(-94,-9) scale(1,1)"><g><path fill="none" stroke="none"/><text fill="#000000" stroke="none" font-family="Arial" font-size="13px" font-style="normal" font-weight="bold" text-decoration="none" x="468.5" y="561.5">Goal</text></g></g><g transform="translate(-94,-9) scale(1,1)"><rect fill="#C0C0C0" stroke="none" x="431" y="391" width="52" height="32" opacity="0.2"/></g><g transform="translate(-94,-9) scale(1,1)"><rect fill="#ffffff" stroke="none" x="424" y="384" width="52" height="32"/></g><g transform="translate(-94,-9) scale(1,1)"><path fill="none" stroke="#000000" d="M 424 384 L 476 384 L 476 416 L 424 416 L 424 384 Z Z" stroke-miterlimit="10"/></g><g transform="translate(-94,-9) scale(1,1)"><g><path fill="none" stroke="none"/><text fill="#000000" stroke="none" font-family="Arial" font-size="13px" font-style="normal" font-weight="bold" text-decoration="none" x="435" y="401.5">Code</text></g></g><g transform="translate(-94,-9) scale(1,1)"><rect fill="#C0C0C0" stroke="none" x="487" y="295" width="61" height="32" opacity="0.2"/></g><g transform="translate(-94,-9) scale(1,1)"><rect fill="#ffffff" stroke="none" x="480" y="288" width="61" height="32"/></g><g transform="translate(-94,-9) scale(1,1)"><path fill="none" stroke="#000000" d="M 480 288 L 541 288 L 541 320 L 480 320 L 480 288 Z Z" stroke-miterlimit="10"/></g><g transform="translate(-94,-9) scale(1,1)"><g><path fill="none" stroke="none"/><text fill="#000000" stroke="none" font-family="Arial" font-size="13px" font-style="normal" font-weight="bold" text-decoration="none" x="487" y="305.5">Cooking</text></g></g><g transform="translate(-94,-9) scale(1,1)"><rect fill="#ffffff" stroke="none" x="272" y="143" width="120" height="49"/></g><g transform="translate(-94,-9) scale(1,1)"><path fill="none" stroke="#000000" d="M 272 143 L 392 143 L 392 192 L 272 192 L 272 143 Z Z" stroke-miterlimit="10"/></g><g transform="translate(-94,-9) scale(1,1)"><g><path fill="none" stroke="none"/><text fill="#000000" stroke="none" font-family="Arial" font-size="13px" font-style="normal" font-weight="bold" text-decoration="none" x="303.5" y="160.5">Ingredient</text></g></g><g transform="translate(-94,-9) scale(1,1)"><rect fill="#C0C0C0" stroke="none" x="359" y="31" width="52" height="32" opacity="0.2"/></g><g transform="translate(-94,-9) scale(1,1)"><rect fill="#ffffff" stroke="none" x="352" y="24" width="52" height="32"/></g><g transform="translate(-94,-9) scale(1,1)"><path fill="none" stroke="#000000" d="M 352 24 L 404 24 L 404 56 L 352 56 L 352 24 Z Z" stroke-miterlimit="10"/></g><g transform="translate(-94,-9) scale(1,1)"><g><path fill="none" stroke="none"/><text fill="#000000" stroke="none" font-family="Arial" font-size="13px" font-style="normal" font-weight="bold" text-decoration="none" x="358" y="41.5">Recipe</text></g></g><g transform="translate(-94,-9) scale(1,1)"><rect fill="#C0C0C0" stroke="none" x="479" y="199" width="132" height="32" opacity="0.2"/></g><g transform="translate(-94,-9) scale(1,1)"><rect fill="#ffffff" stroke="none" x="472" y="192" width="132" height="32"/></g><g transform="translate(-94,-9) scale(1,1)"><path fill="none" stroke="#000000" d="M 472 192 L 604 192 L 604 224 L 472 224 L 472 192 Z Z" stroke-miterlimit="10"/></g><g transform="translate(-94,-9) scale(1,1)"><g><path fill="none" stroke="none"/><text fill="#000000" stroke="none" font-family="Arial" font-size="13px" font-style="normal" font-weight="bold" text-decoration="none" x="480.5" y="209.5">PersonalizedRecipe</text></g></g><g transform="translate(-94,-9) scale(1,1)"><rect fill="#C0C0C0" stroke="none" x="199" y="391" width="61" height="32" opacity="0.2"/></g><g transform="translate(-94,-9) scale(1,1)"><rect fill="#ffffff" stroke="none" x="192" y="384" width="61" height="32"/></g><g transform="translate(-94,-9) scale(1,1)"><path fill="none" stroke="#000000" d="M 192 384 L 253 384 L 253 416 L 192 416 L 192 384 Z Z" stroke-miterlimit="10"/></g><g transform="translate(-94,-9) scale(1,1)"><g><path fill="none" stroke="none"/><text fill="#000000" stroke="none" font-family="Arial" font-size="13px" font-style="normal" font-weight="bold" text-decoration="none" x="198" y="401.5">Lifestyle</text></g></g><g transform="translate(-94,-9) scale(1,1)"><path fill="none" stroke="#000000" d="M 340 416 L 362 416 M 362 416 A 8 8 0 0 1 370 424 L 370 448" stroke-miterlimit="10"/></g><g transform="translate(-94,-9) scale(1,1)"><path fill="none" stroke="#000000" d="M 363 441 L 377 441" stroke-miterlimit="10"/></g><g transform="translate(-94,-9) scale(1,1)"><path fill="none" stroke="#000000" d="M 347 409 L 347 423" stroke-miterlimit="10"/></g><g transform="translate(-94,-9) scale(1,1)"><g><path fill="none" stroke="none"/><text fill="#000000" stroke="none" font-family="Arial" font-size="13px" font-style="normal" font-weight="normal" text-decoration="none" x="364.5" y="407.5"></text></g></g><g transform="translate(-94,-9) scale(1,1)"><g><path fill="none" stroke="none"/><text fill="#000000" stroke="none" font-family="Arial" font-size="13px" font-style="normal" font-weight="normal" text-decoration="none" x="384.5" y="428.5"></text></g></g><g transform="translate(-94,-9) scale(1,1)"><path fill="none" stroke="#000000" d="M 340 384 L 360 384 M 360 384 A 8 8 0 0 0 368 376 L 368 368" stroke-miterlimit="10"/></g><g transform="translate(-94,-9) scale(1,1)"><path fill="none" stroke="#000000" d="M 375 375 L 361 375" stroke-miterlimit="10"/></g><g transform="translate(-94,-9) scale(1,1)"><path fill="none" stroke="#000000" d="M 347 377 L 347 391" stroke-miterlimit="10"/></g><g transform="translate(-94,-9) scale(1,1)"><g><path fill="none" stroke="none"/><text fill="#000000" stroke="none" font-family="Arial" font-size="13px" font-style="normal" font-weight="normal" text-decoration="none" x="364.5" y="375.5"></text></g></g><g transform="translate(-94,-9) scale(1,1)"><g><path fill="none" stroke="none"/><text fill="#000000" stroke="none" font-family="Arial" font-size="13px" font-style="normal" font-weight="normal" text-decoration="none" x="352.5" y="399.5"></text></g></g><g transform="translate(-94,-9) scale(1,1)"><path fill="none" stroke="#000000" d="M 392 448 L 392 424 M 392 424 A 8 8 0 0 1 400 416 L 424 416" stroke-miterlimit="10"/></g><g transform="translate(-94,-9) scale(1,1)"><path fill="none" stroke="#000000" d="M 417 423 L 417 409" stroke-miterlimit="10"/></g><g transform="translate(-94,-9) scale(1,1)"><path fill="none" stroke="#000000" d="M 385 441 L 399 441" stroke-miterlimit="10"/></g><g transform="translate(-94,-9) scale(1,1)"><g><path fill="none" stroke="none"/><text fill="#000000" stroke="none" font-family="Arial" font-size="13px" font-style="normal" font-weight="normal" text-decoration="none" x="376.5" y="428.5"></text></g></g><g transform="translate(-94,-9) scale(1,1)"><g><path fill="none" stroke="none"/><text fill="#000000" stroke="none" font-family="Arial" font-size="13px" font-style="normal" font-weight="normal" text-decoration="none" x="397.5" y="407.5"></text></g></g><g transform="translate(-94,-9) scale(1,1)"><path fill="none" stroke="#000000" d="M 392 368 L 392 376 M 392 376 A 8 8 0 0 0 400 384 L 424 384" stroke-miterlimit="10"/></g><g transform="translate(-94,-9) scale(1,1)"><path fill="none" stroke="#000000" d="M 417 391 L 417 377" stroke-miterlimit="10"/></g><g transform="translate(-94,-9) scale(1,1)"><path fill="none" stroke="#000000" d="M 399 375 L 385 375" stroke-miterlimit="10"/></g><g transform="translate(-94,-9) scale(1,1)"><g><path fill="none" stroke="none"/><text fill="#000000" stroke="none" font-family="Arial" font-size="13px" font-style="normal" font-weight="normal" text-decoration="none" x="406.5" y="399.5"></text></g></g><g transform="translate(-94,-9) scale(1,1)"><g><path fill="none" stroke="none"/><text fill="#000000" stroke="none" font-family="Arial" font-size="13px" font-style="normal" font-weight="normal" text-decoration="none" x="397.5" y="375.5"></text></g></g><g transform="translate(-94,-9) scale(1,1)"><path fill="none" stroke="#000000" d="M 512 224 L 512 288" stroke-miterlimit="10"/></g><g transform="translate(-94,-9) scale(1,1)"><path fill="none" stroke="#000000" d="M 505 281 L 519 281" stroke-miterlimit="10"/></g><g transform="translate(-94,-9) scale(1,1)"><path fill="none" stroke="#000000" d="M 519 231 L 505 231" stroke-miterlimit="10"/></g><g transform="translate(-94,-9) scale(1,1)"><g><path fill="none" stroke="none"/><text fill="#000000" stroke="none" font-family="Arial" font-size="13px" font-style="normal" font-weight="normal" text-decoration="none" x="526.5" y="255.5"></text></g></g><g transform="translate(-94,-9) scale(1,1)"><g><path fill="none" stroke="none"/><text fill="#000000" stroke="none" font-family="Arial" font-size="13px" font-style="normal" font-weight="normal" text-decoration="none" x="526.5" y="268.5"></text></g></g><g transform="translate(-94,-9) scale(1,1)"><path fill="none" stroke="#000000" d="M 480 304 L 304 304 M 304 304 A 8 8 0 0 1 296 296 L 296 192" stroke-miterlimit="10"/></g><g transform="translate(-94,-9) scale(1,1)"><path fill="none" stroke="#000000" d="M 296 206 L 303 192" stroke-miterlimit="10"/></g><g transform="translate(-94,-9) scale(1,1)"><path fill="none" stroke="#000000" d="M 296 206 L 289 192" stroke-miterlimit="10"/></g><g transform="translate(-94,-9) scale(1,1)"><path fill="#FFFFFF" stroke="none" d="M 289 214 C 289 210.1340064 292.1340064 207 296 207 C 299.8659936 207 303 210.1340064 303 214 C 303 217.8659936 299.8659936 221 296 221 C 292.1340064 221 289 217.8659936 289 214 Z"/></g><g transform="translate(-94,-9) scale(1,1)"><path fill="none" stroke="#000000" d="M 289 214 C 289 210.1340064 292.1340064 207 296 207 C 299.8659936 207 303 210.1340064 303 214 C 303 217.8659936 299.8659936 221 296 221 C 292.1340064 221 289 217.8659936 289 214 Z" stroke-miterlimit="10"/></g><g transform="translate(-94,-9) scale(1,1)"><path fill="none" stroke="#000000" d="M 473 311 L 473 297" stroke-miterlimit="10"/></g><g transform="translate(-94,-9) scale(1,1)"><g><path fill="none" stroke="none"/><text fill="#000000" stroke="none" font-family="Arial" font-size="13px" font-style="normal" font-weight="normal" text-decoration="none" x="453.5" y="324.5"></text></g></g><g transform="translate(-94,-9) scale(1,1)"><g><path fill="none" stroke="none"/><text fill="#000000" stroke="none" font-family="Arial" font-size="13px" font-style="normal" font-weight="normal" text-decoration="none" x="280.5" y="223.5"></text></g></g><g transform="translate(-94,-9) scale(1,1)"><path fill="none" stroke="#000000" d="M 416 448 L 502 448 M 502 448 A 8 8 0 0 0 510 440 L 510 320" stroke-miterlimit="10"/></g><g transform="translate(-94,-9) scale(1,1)"><path fill="none" stroke="#000000" d="M 517 327 L 503 327" stroke-miterlimit="10"/></g><g transform="translate(-94,-9) scale(1,1)"><path fill="none" stroke="#000000" d="M 423 441 L 423 455" stroke-miterlimit="10"/></g><g transform="translate(-94,-9) scale(1,1)"><g><path fill="none" stroke="none"/><text fill="#000000" stroke="none" font-family="Arial" font-size="13px" font-style="normal" font-weight="normal" text-decoration="none" x="440.5" y="439.5"></text></g></g><g transform="translate(-94,-9) scale(1,1)"><g><path fill="none" stroke="none"/><text fill="#000000" stroke="none" font-family="Arial" font-size="13px" font-style="normal" font-weight="normal" text-decoration="none" x="494.5" y="351.5"></text></g></g><g transform="translate(-94,-9) scale(1,1)"><path fill="none" stroke="#000000" d="M 168 104 L 312 104 M 312 104 A 8 8 0 0 1 320 112 L 320 143" stroke-miterlimit="10"/></g><g transform="translate(-94,-9) scale(1,1)"><path fill="none" stroke="#000000" d="M 320 129 L 313 143" stroke-miterlimit="10"/></g><g transform="translate(-94,-9) scale(1,1)"><path fill="none" stroke="#000000" d="M 320 129 L 327 143" stroke-miterlimit="10"/></g><g transform="translate(-94,-9) scale(1,1)"><path fill="#FFFFFF" stroke="none" d="M 313 121 C 313 117.1340064 316.1340064 114 320 114 C 323.8659936 114 327 117.1340064 327 121 C 327 124.8659936 323.8659936 128 320 128 C 316.1340064 128 313 124.8659936 313 121 Z"/></g><g transform="translate(-94,-9) scale(1,1)"><path fill="none" stroke="#000000" d="M 313 121 C 313 117.1340064 316.1340064 114 320 114 C 323.8659936 114 327 117.1340064 327 121 C 327 124.8659936 323.8659936 128 320 128 C 316.1340064 128 313 124.8659936 313 121 Z" stroke-miterlimit="10"/></g><g transform="translate(-94,-9) scale(1,1)"><path fill="none" stroke="#000000" d="M 182 104 L 168 97" stroke-miterlimit="10"/></g><g transform="translate(-94,-9) scale(1,1)"><path fill="none" stroke="#000000" d="M 182 104 L 168 111" stroke-miterlimit="10"/></g><g transform="translate(-94,-9) scale(1,1)"><path fill="#FFFFFF" stroke="none" d="M 183 104 C 183 100.1340064 186.1340064 97 190 97 C 193.8659936 97 197 100.1340064 197 104 C 197 107.8659936 193.8659936 111 190 111 C 186.1340064 111 183 107.8659936 183 104 Z"/></g><g transform="translate(-94,-9) scale(1,1)"><path fill="none" stroke="#000000" d="M 183 104 C 183 100.1340064 186.1340064 97 190 97 C 193.8659936 97 197 100.1340064 197 104 C 197 107.8659936 193.8659936 111 190 111 C 186.1340064 111 183 107.8659936 183 104 Z" stroke-miterlimit="10"/></g><g transform="translate(-94,-9) scale(1,1)"><g><path fill="none" stroke="none"/><text fill="#000000" stroke="none" font-family="Arial" font-size="13px" font-style="normal" font-weight="normal" text-decoration="none" x="192.5" y="95.5"></text></g></g><g transform="translate(-94,-9) scale(1,1)"><g><path fill="none" stroke="none"/><text fill="#000000" stroke="none" font-family="Arial" font-size="13px" font-style="normal" font-weight="normal" text-decoration="none" x="334.5" y="123.5"></text></g></g><g transform="translate(-94,-9) scale(1,1)"><path fill="none" stroke="#000000" d="M 216 384 L 216 168 M 216 168 A 8 8 0 0 1 224 160 L 272 160" stroke-miterlimit="10"/></g><g transform="translate(-94,-9) scale(1,1)"><path fill="none" stroke="#000000" d="M 258 160 L 272 167" stroke-miterlimit="10"/></g><g transform="translate(-94,-9) scale(1,1)"><path fill="none" stroke="#000000" d="M 258 160 L 272 153" stroke-miterlimit="10"/></g><g transform="translate(-94,-9) scale(1,1)"><path fill="#FFFFFF" stroke="none" d="M 243 160 C 243 156.1340064 246.1340064 153 250 153 C 253.8659936 153 257 156.1340064 257 160 C 257 163.8659936 253.8659936 167 250 167 C 246.1340064 167 243 163.8659936 243 160 Z"/></g><g transform="translate(-94,-9) scale(1,1)"><path fill="none" stroke="#000000" d="M 243 160 C 243 156.1340064 246.1340064 153 250 153 C 253.8659936 153 257 156.1340064 257 160 C 257 163.8659936 253.8659936 167 250 167 C 246.1340064 167 243 163.8659936 243 160 Z" stroke-miterlimit="10"/></g><g transform="translate(-94,-9) scale(1,1)"><path fill="none" stroke="#000000" d="M 216 370 L 209 384" stroke-miterlimit="10"/></g><g transform="translate(-94,-9) scale(1,1)"><path fill="none" stroke="#000000" d="M 216 370 L 223 384" stroke-miterlimit="10"/></g><g transform="translate(-94,-9) scale(1,1)"><path fill="#FFFFFF" stroke="none" d="M 209 362 C 209 358.1340064 212.1340064 355 216 355 C 219.8659936 355 223 358.1340064 223 362 C 223 365.8659936 219.8659936 369 216 369 C 212.1340064 369 209 365.8659936 209 362 Z"/></g><g transform="translate(-94,-9) scale(1,1)"><path fill="none" stroke="#000000" d="M 209 362 C 209 358.1340064 212.1340064 355 216 355 C 219.8659936 355 223 358.1340064 223 362 C 223 365.8659936 219.8659936 369 216 369 C 212.1340064 369 209 365.8659936 209 362 Z" stroke-miterlimit="10"/></g><g transform="translate(-94,-9) scale(1,1)"><g><path fill="none" stroke="none"/><text fill="#000000" stroke="none" font-family="Arial" font-size="13px" font-style="normal" font-weight="normal" text-decoration="none" x="200.5" y="364.5"></text></g></g><g transform="translate(-94,-9) scale(1,1)"><g><path fill="none" stroke="none"/><text fill="#000000" stroke="none" font-family="Arial" font-size="13px" font-style="normal" font-weight="normal" text-decoration="none" x="245.5" y="151.5"></text></g></g><g transform="translate(-94,-9) scale(1,1)"><path fill="none" stroke="#000000" d="M 376 248 L 336 248 M 336 248 A 8 8 0 0 1 328 240 L 328 192" stroke-miterlimit="10"/></g><g transform="translate(-94,-9) scale(1,1)"><path fill="none" stroke="#000000" d="M 335 199 L 321 199" stroke-miterlimit="10"/></g><g transform="translate(-94,-9) scale(1,1)"><path fill="none" stroke="#000000" d="M 369 255 L 369 241" stroke-miterlimit="10"/></g><g transform="translate(-94,-9) scale(1,1)"><g><path fill="none" stroke="none"/><text fill="#000000" stroke="none" font-family="Arial" font-size="13px" font-style="normal" font-weight="normal" text-decoration="none" x="349.5" y="268.5"></text></g></g><g transform="translate(-94,-9) scale(1,1)"><g><path fill="none" stroke="none"/><text fill="#000000" stroke="none" font-family="Arial" font-size="13px" font-style="normal" font-weight="normal" text-decoration="none" x="312.5" y="223.5"></text></g></g><g transform="translate(-94,-9) scale(1,1)"><path fill="none" stroke="#000000" d="M 504 192 L 504 168 M 504 168 A 8 8 0 0 0 496 160 L 392 160" stroke-miterlimit="10"/></g><g transform="translate(-94,-9) scale(1,1)"><path fill="none" stroke="#000000" d="M 406 160 L 392 153" stroke-miterlimit="10"/></g><g transform="translate(-94,-9) scale(1,1)"><path fill="none" stroke="#000000" d="M 406 160 L 392 167" stroke-miterlimit="10"/></g><g transform="translate(-94,-9) scale(1,1)"><path fill="#FFFFFF" stroke="none" d="M 407 160 C 407 156.1340064 410.1340064 153 414 153 C 417.8659936 153 421 156.1340064 421 160 C 421 163.8659936 417.8659936 167 414 167 C 410.1340064 167 407 163.8659936 407 160 Z"/></g><g transform="translate(-94,-9) scale(1,1)"><path fill="none" stroke="#000000" d="M 407 160 C 407 156.1340064 410.1340064 153 414 153 C 417.8659936 153 421 156.1340064 421 160 C 421 163.8659936 417.8659936 167 414 167 C 410.1340064 167 407 163.8659936 407 160 Z" stroke-miterlimit="10"/></g><g transform="translate(-94,-9) scale(1,1)"><path fill="none" stroke="#000000" d="M 504 178 L 497 192" stroke-miterlimit="10"/></g><g transform="translate(-94,-9) scale(1,1)"><path fill="none" stroke="#000000" d="M 504 178 L 511 192" stroke-miterlimit="10"/></g><g transform="translate(-94,-9) scale(1,1)"><path fill="#FFFFFF" stroke="none" d="M 497 170 C 497 166.1340064 500.1340064 163 504 163 C 507.8659936 163 511 166.1340064 511 170 C 511 173.8659936 507.8659936 177 504 177 C 500.1340064 177 497 173.8659936 497 170 Z"/></g><g transform="translate(-94,-9) scale(1,1)"><path fill="none" stroke="#000000" d="M 497 170 C 497 166.1340064 500.1340064 163 504 163 C 507.8659936 163 511 166.1340064 511 170 C 511 173.8659936 507.8659936 177 504 177 C 500.1340064 177 497 173.8659936 497 170 Z" stroke-miterlimit="10"/></g><g transform="translate(-94,-9) scale(1,1)"><g><path fill="none" stroke="none"/><text fill="#000000" stroke="none" font-family="Arial" font-size="13px" font-style="normal" font-weight="normal" text-decoration="none" x="488.5" y="172.5"></text></g></g><g transform="translate(-94,-9) scale(1,1)"><g><path fill="none" stroke="none"/><text fill="#000000" stroke="none" font-family="Arial" font-size="13px" font-style="normal" font-weight="normal" text-decoration="none" x="416.5" y="180.5"></text></g></g><g transform="translate(-94,-9) scale(1,1)"><path fill="none" stroke="#000000" d="M 404 40 L 570 40 M 570 40 A 8 8 0 0 1 578 48 L 578 192" stroke-miterlimit="10"/></g><g transform="translate(-94,-9) scale(1,1)"><path fill="none" stroke="#000000" d="M 571 185 L 585 185" stroke-miterlimit="10"/></g><g transform="translate(-94,-9) scale(1,1)"><path fill="none" stroke="#000000" d="M 411 33 L 411 47" stroke-miterlimit="10"/></g><g transform="translate(-94,-9) scale(1,1)"><g><path fill="none" stroke="none"/><text fill="#000000" stroke="none" font-family="Arial" font-size="13px" font-style="normal" font-weight="normal" text-decoration="none" x="428.5" y="31.5"></text></g></g><g transform="translate(-94,-9) scale(1,1)"><g><path fill="none" stroke="none"/><text fill="#000000" stroke="none" font-family="Arial" font-size="13px" font-style="normal" font-weight="normal" text-decoration="none" x="592.5" y="172.5"></text></g></g><g transform="translate(-94,-9) scale(1,1)"><path fill="none" stroke="#000000" d="M 288 143 L 288 48 M 288 48 A 8 8 0 0 1 296 40 L 352 40" stroke-miterlimit="10"/></g><g transform="translate(-94,-9) scale(1,1)"><path fill="none" stroke="#000000" d="M 338 40 L 352 47" stroke-miterlimit="10"/></g><g transform="translate(-94,-9) scale(1,1)"><path fill="none" stroke="#000000" d="M 338 40 L 352 33" stroke-miterlimit="10"/></g><g transform="translate(-94,-9) scale(1,1)"><path fill="#FFFFFF" stroke="none" d="M 323 40 C 323 36.1340064 326.1340064 33 330 33 C 333.8659936 33 337 36.1340064 337 40 C 337 43.8659936 333.8659936 47 330 47 C 326.1340064 47 323 43.8659936 323 40 Z"/></g><g transform="translate(-94,-9) scale(1,1)"><path fill="none" stroke="#000000" d="M 323 40 C 323 36.1340064 326.1340064 33 330 33 C 333.8659936 33 337 36.1340064 337 40 C 337 43.8659936 333.8659936 47 330 47 C 326.1340064 47 323 43.8659936 323 40 Z" stroke-miterlimit="10"/></g><g transform="translate(-94,-9) scale(1,1)"><path fill="none" stroke="#000000" d="M 288 129 L 281 143" stroke-miterlimit="10"/></g><g transform="translate(-94,-9) scale(1,1)"><path fill="none" stroke="#000000" d="M 288 129 L 295 143" stroke-miterlimit="10"/></g><g transform="translate(-94,-9) scale(1,1)"><path fill="#FFFFFF" stroke="none" d="M 281 121 C 281 117.1340064 284.1340064 114 288 114 C 291.8659936 114 295 117.1340064 295 121 C 295 124.8659936 291.8659936 128 288 128 C 284.1340064 128 281 124.8659936 281 121 Z"/></g><g transform="translate(-94,-9) scale(1,1)"><path fill="none" stroke="#000000" d="M 281 121 C 281 117.1340064 284.1340064 114 288 114 C 291.8659936 114 295 117.1340064 295 121 C 295 124.8659936 291.8659936 128 288 128 C 284.1340064 128 281 124.8659936 281 121 Z" stroke-miterlimit="10"/></g><g transform="translate(-94,-9) scale(1,1)"><g><path fill="none" stroke="none"/><text fill="#000000" stroke="none" font-family="Arial" font-size="13px" font-style="normal" font-weight="normal" text-decoration="none" x="272.5" y="123.5"></text></g></g><g transform="translate(-94,-9) scale(1,1)"><g><path fill="none" stroke="none"/><text fill="#000000" stroke="none" font-family="Arial" font-size="13px" font-style="normal" font-weight="normal" text-decoration="none" x="325.5" y="31.5"></text></g></g><g transform="translate(-94,-9) scale(1,1)"><path fill="none" stroke="#000000" d="M 540 192 L 540 120 M 540 120 A 8 8 0 0 0 532 112 L 509 112" stroke-miterlimit="10"/></g><g transform="translate(-94,-9) scale(1,1)"><path fill="none" stroke="#000000" d="M 523 112 L 509 105" stroke-miterlimit="10"/></g><g transform="translate(-94,-9) scale(1,1)"><path fill="none" stroke="#000000" d="M 523 112 L 509 119" stroke-miterlimit="10"/></g><g transform="translate(-94,-9) scale(1,1)"><path fill="#FFFFFF" stroke="none" d="M 524 112 C 524 108.1340064 527.1340064 105 531 105 C 534.8659936 105 538 108.1340064 538 112 C 538 115.8659936 534.8659936 119 531 119 C 527.1340064 119 524 115.8659936 524 112 Z"/></g><g transform="translate(-94,-9) scale(1,1)"><path fill="none" stroke="#000000" d="M 524 112 C 524 108.1340064 527.1340064 105 531 105 C 534.8659936 105 538 108.1340064 538 112 C 538 115.8659936 534.8659936 119 531 119 C 527.1340064 119 524 115.8659936 524 112 Z" stroke-miterlimit="10"/></g><g transform="translate(-94,-9) scale(1,1)"><path fill="none" stroke="#000000" d="M 533 185 L 547 185" stroke-miterlimit="10"/></g><g transform="translate(-94,-9) scale(1,1)"><g><path fill="none" stroke="none"/><text fill="#000000" stroke="none" font-family="Arial" font-size="13px" font-style="normal" font-weight="normal" text-decoration="none" x="524.5" y="172.5"></text></g></g><g transform="translate(-94,-9) scale(1,1)"><g><path fill="none" stroke="none"/><text fill="#000000" stroke="none" font-family="Arial" font-size="13px" font-style="normal" font-weight="normal" text-decoration="none" x="533.5" y="132.5"></text></g></g><g transform="translate(-94,-9) scale(1,1)"><path fill="none" stroke="#000000" d="M 424 112 L 360 112 M 360 112 A 8 8 0 0 0 352 120 L 352 143" stroke-miterlimit="10"/></g><g transform="translate(-94,-9) scale(1,1)"><path fill="none" stroke="#000000" d="M 352 129 L 345 143" stroke-miterlimit="10"/></g><g transform="translate(-94,-9) scale(1,1)"><path fill="none" stroke="#000000" d="M 352 129 L 359 143" stroke-miterlimit="10"/></g><g transform="translate(-94,-9) scale(1,1)"><path fill="#FFFFFF" stroke="none" d="M 345 121 C 345 117.1340064 348.1340064 114 352 114 C 355.8659936 114 359 117.1340064 359 121 C 359 124.8659936 355.8659936 128 352 128 C 348.1340064 128 345 124.8659936 345 121 Z"/></g><g transform="translate(-94,-9) scale(1,1)"><path fill="none" stroke="#000000" d="M 345 121 C 345 117.1340064 348.1340064 114 352 114 C 355.8659936 114 359 117.1340064 359 121 C 359 124.8659936 355.8659936 128 352 128 C 348.1340064 128 345 124.8659936 345 121 Z" stroke-miterlimit="10"/></g><g transform="translate(-94,-9) scale(1,1)"><path fill="none" stroke="#000000" d="M 410 112 L 424 119" stroke-miterlimit="10"/></g><g transform="translate(-94,-9) scale(1,1)"><path fill="none" stroke="#000000" d="M 410 112 L 424 105" stroke-miterlimit="10"/></g><g transform="translate(-94,-9) scale(1,1)"><path fill="#FFFFFF" stroke="none" d="M 395 112 C 395 108.1340064 398.1340064 105 402 105 C 405.8659936 105 409 108.1340064 409 112 C 409 115.8659936 405.8659936 119 402 119 C 398.1340064 119 395 115.8659936 395 112 Z"/></g><g transform="translate(-94,-9) scale(1,1)"><path fill="none" stroke="#000000" d="M 395 112 C 395 108.1340064 398.1340064 105 402 105 C 405.8659936 105 409 108.1340064 409 112 C 409 115.8659936 405.8659936 119 402 119 C 398.1340064 119 395 115.8659936 395 112 Z" stroke-miterlimit="10"/></g><g transform="translate(-94,-9) scale(1,1)"><g><path fill="none" stroke="none"/><text fill="#000000" stroke="none" font-family="Arial" font-size="13px" font-style="normal" font-weight="normal" text-decoration="none" x="397.5" y="132.5"></text></g></g><g transform="translate(-94,-9) scale(1,1)"><g><path fill="none" stroke="none"/><text fill="#000000" stroke="none" font-family="Arial" font-size="13px" font-style="normal" font-weight="normal" text-decoration="none" x="366.5" y="123.5"></text></g></g><g transform="translate(-94,-9) scale(1,1)"><path fill="none" stroke="#000000" d="M 368 544 L 368 480" stroke-miterlimit="10"/></g><g transform="translate(-94,-9) scale(1,1)"><path fill="none" stroke="#000000" d="M 368 494 L 375 480" stroke-miterlimit="10"/></g><g transform="translate(-94,-9) scale(1,1)"><path fill="none" stroke="#000000" d="M 368 494 L 361 480" stroke-miterlimit="10"/></g><g transform="translate(-94,-9) scale(1,1)"><path fill="#FFFFFF" stroke="none" d="M 361 502 C 361 498.1340064 364.1340064 495 368 495 C 371.8659936 495 375 498.1340064 375 502 C 375 505.8659936 371.8659936 509 368 509 C 364.1340064 509 361 505.8659936 361 502 Z"/></g><g transform="translate(-94,-9) scale(1,1)"><path fill="none" stroke="#000000" d="M 361 502 C 361 498.1340064 364.1340064 495 368 495 C 371.8659936 495 375 498.1340064 375 502 C 375 505.8659936 371.8659936 509 368 509 C 364.1340064 509 361 505.8659936 361 502 Z" stroke-miterlimit="10"/></g><g transform="translate(-94,-9) scale(1,1)"><path fill="none" stroke="#000000" d="M 361 537 L 375 537" stroke-miterlimit="10"/></g><g transform="translate(-94,-9) scale(1,1)"><g><path fill="none" stroke="none"/><text fill="#000000" stroke="none" font-family="Arial" font-size="13px" font-style="normal" font-weight="normal" text-decoration="none" x="352.5" y="524.5"></text></g></g><g transform="translate(-94,-9) scale(1,1)"><g><path fill="none" stroke="none"/><text fill="#000000" stroke="none" font-family="Arial" font-size="13px" font-style="normal" font-weight="normal" text-decoration="none" x="352.5" y="511.5"></text></g></g><g transform="translate(-94,-9) scale(1,1)"><path fill="none" stroke="#000000" d="M 482 544 L 482 528 M 482 528 A 8 8 0 0 0 474 520 L 408 520 M 408 520 A 8 8 0 0 1 400 512 L 400 480" stroke-miterlimit="10"/></g><g transform="translate(-94,-9) scale(1,1)"><path fill="none" stroke="#000000" d="M 407 487 L 393 487" stroke-miterlimit="10"/></g><g transform="translate(-94,-9) scale(1,1)"><path fill="none" stroke="#000000" d="M 475 537 L 489 537" stroke-miterlimit="10"/></g><g transform="translate(-94,-9) scale(1,1)"><g><path fill="none" stroke="none"/><text fill="#000000" stroke="none" font-family="Arial" font-size="13px" font-style="normal" font-weight="normal" text-decoration="none" x="466.5" y="524.5"></text></g></g><g transform="translate(-94,-9) scale(1,1)"><g><path fill="none" stroke="none"/><text fill="#000000" stroke="none" font-family="Arial" font-size="13px" font-style="normal" font-weight="normal" text-decoration="none" x="384.5" y="511.5"></text></g></g><g transform="translate(-94,-9) scale(1,1)"><path fill="none" stroke="#000000" d="M 214 416 L 214 440 M 214 440 A 8 8 0 0 0 222 448 L 344 448" stroke-miterlimit="10"/></g><g transform="translate(-94,-9) scale(1,1)"><path fill="none" stroke="#000000" d="M 337 455 L 337 441" stroke-miterlimit="10"/></g><g transform="translate(-94,-9) scale(1,1)"><path fill="none" stroke="#000000" d="M 221 423 L 207 423" stroke-miterlimit="10"/></g><g transform="translate(-94,-9) scale(1,1)"><g><path fill="none" stroke="none"/><text fill="#000000" stroke="none" font-family="Arial" font-size="13px" font-style="normal" font-weight="normal" text-decoration="none" x="228.5" y="447.5"></text></g></g><g transform="translate(-94,-9) scale(1,1)"><g><path fill="none" stroke="none"/><text fill="#000000" stroke="none" font-family="Arial" font-size="13px" font-style="normal" font-weight="normal" text-decoration="none" x="317.5" y="439.5"></text></g></g><g transform="translate(-94,-9) scale(1,1)"><path fill="none" stroke="#000000" d="M 141 128 L 141 456 M 141 456 A 8 8 0 0 0 149 464 L 344 464" stroke-miterlimit="10"/></g><g transform="translate(-94,-9) scale(1,1)"><path fill="none" stroke="#000000" d="M 330 464 L 344 471" stroke-miterlimit="10"/></g><g transform="translate(-94,-9) scale(1,1)"><path fill="none" stroke="#000000" d="M 330 464 L 344 457" stroke-miterlimit="10"/></g><g transform="translate(-94,-9) scale(1,1)"><path fill="#FFFFFF" stroke="none" d="M 315 464 C 315 460.1340064 318.1340064 457 322 457 C 325.8659936 457 329 460.1340064 329 464 C 329 467.8659936 325.8659936 471 322 471 C 318.1340064 471 315 467.8659936 315 464 Z"/></g><g transform="translate(-94,-9) scale(1,1)"><path fill="none" stroke="#000000" d="M 315 464 C 315 460.1340064 318.1340064 457 322 457 C 325.8659936 457 329 460.1340064 329 464 C 329 467.8659936 325.8659936 471 322 471 C 318.1340064 471 315 467.8659936 315 464 Z" stroke-miterlimit="10"/></g><g transform="translate(-94,-9) scale(1,1)"><path fill="none" stroke="#000000" d="M 141 142 L 148 128" stroke-miterlimit="10"/></g><g transform="translate(-94,-9) scale(1,1)"><path fill="none" stroke="#000000" d="M 141 142 L 134 128" stroke-miterlimit="10"/></g><g transform="translate(-94,-9) scale(1,1)"><path fill="#FFFFFF" stroke="none" d="M 134 150 C 134 146.1340064 137.1340064 143 141 143 C 144.8659936 143 148 146.1340064 148 150 C 148 153.8659936 144.8659936 157 141 157 C 137.1340064 157 134 153.8659936 134 150 Z"/></g><g transform="translate(-94,-9) scale(1,1)"><path fill="none" stroke="#000000" d="M 134 150 C 134 146.1340064 137.1340064 143 141 143 C 144.8659936 143 148 146.1340064 148 150 C 148 153.8659936 144.8659936 157 141 157 C 137.1340064 157 134 153.8659936 134 150 Z" stroke-miterlimit="10"/></g><g transform="translate(-94,-9) scale(1,1)"><g><path fill="none" stroke="none"/><text fill="#000000" stroke="none" font-family="Arial" font-size="13px" font-style="normal" font-weight="normal" text-decoration="none" x="155.5" y="159.5"></text></g></g><g transform="translate(-94,-9) scale(1,1)"><g><path fill="none" stroke="none"/><text fill="#000000" stroke="none" font-family="Arial" font-size="13px" font-style="normal" font-weight="normal" text-decoration="none" x="317.5" y="455.5"></text></g></g><g transform="translate(-94,-9) scale(1,1)"><path fill="none" stroke="#000000" d="M 416 464 L 568 464 M 568 464 A 8 8 0 0 0 576 456 L 576 224" stroke-miterlimit="10"/></g><g transform="translate(-94,-9) scale(1,1)"><path fill="none" stroke="#000000" d="M 576 238 L 583 224" stroke-miterlimit="10"/></g><g transform="translate(-94,-9) scale(1,1)"><path fill="none" stroke="#000000" d="M 576 238 L 569 224" stroke-miterlimit="10"/></g><g transform="translate(-94,-9) scale(1,1)"><path fill="#FFFFFF" stroke="none" d="M 569 246 C 569 242.1340064 572.1340064 239 576 239 C 579.8659936 239 583 242.1340064 583 246 C 583 249.8659936 579.8659936 253 576 253 C 572.1340064 253 569 249.8659936 569 246 Z"/></g><g transform="translate(-94,-9) scale(1,1)"><path fill="none" stroke="#000000" d="M 569 246 C 569 242.1340064 572.1340064 239 576 239 C 579.8659936 239 583 242.1340064 583 246 C 583 249.8659936 579.8659936 253 576 253 C 572.1340064 253 569 249.8659936 569 246 Z" stroke-miterlimit="10"/></g><g transform="translate(-94,-9) scale(1,1)"><path fill="none" stroke="#000000" d="M 423 457 L 423 471" stroke-miterlimit="10"/></g><g transform="translate(-94,-9) scale(1,1)"><g><path fill="none" stroke="none"/><text fill="#000000" stroke="none" font-family="Arial" font-size="13px" font-style="normal" font-weight="normal" text-decoration="none" x="440.5" y="455.5"></text></g></g><g transform="translate(-94,-9) scale(1,1)"><g><path fill="none" stroke="none"/><text fill="#000000" stroke="none" font-family="Arial" font-size="13px" font-style="normal" font-weight="normal" text-decoration="none" x="560.5" y="255.5"></text></g></g></g></svg>